<?xml version="1.0" encoding="UTF-8" standalone="no"?>
<!DOCTYPE svg PUBLIC "-//W3C//DTD SVG 1.1//EN"
 "http://www.w3.org/Graphics/SVG/1.1/DTD/svg11.dtd">
<!-- Generated by graphviz version 14.1.4 (0)
 -->
<!-- Title: dependency&#45;cruiser output Pages: 1 -->
<svg width="631pt" height="659pt"
 viewBox="0.00 0.00 631.00 659.00" xmlns="http://www.w3.org/2000/svg" xmlns:xlink="http://www.w3.org/1999/xlink">
<g id="graph0" class="graph" transform="scale(1 1) rotate(0) translate(4 654.62)">
<title>dependency&#45;cruiser output</title>
<polygon fill="white" stroke="none" points="-4,4 -4,-654.62 626.75,-654.62 626.75,4 -4,4"/>
<g id="clust1" class="cluster">
<title>cluster_helpers</title>
<path fill="#ffffff" stroke="black" stroke-width="2" d="M404.88,-127.62C404.88,-127.62 450.88,-127.62 450.88,-127.62 456.88,-127.62 462.88,-133.62 462.88,-139.62 462.88,-139.62 462.88,-170.62 462.88,-170.62 462.88,-176.62 456.88,-182.62 450.88,-182.62 450.88,-182.62 404.88,-182.62 404.88,-182.62 398.88,-182.62 392.88,-176.62 392.88,-170.62 392.88,-170.62 392.88,-139.62 392.88,-139.62 392.88,-133.62 398.88,-127.62 404.88,-127.62"/>
<text xml:space="preserve" text-anchor="middle" x="427.88" y="-170.07" font-family="Helvetica,sans-Serif" font-weight="bold" font-size="9.00">helpers</text>
</g>
<g id="clust2" class="cluster">
<title>cluster_jsdoc_default</title>
<path fill="#ffffff" stroke="black" stroke-width="2" d="M20,-228.62C20,-228.62 152,-228.62 152,-228.62 158,-228.62 164,-234.62 164,-240.62 164,-240.62 164,-473.62 164,-473.62 164,-479.62 158,-485.62 152,-485.62 152,-485.62 20,-485.62 20,-485.62 14,-485.62 8,-479.62 8,-473.62 8,-473.62 8,-240.63 8,-240.63 8,-234.62 14,-228.62 20,-228.62"/>
<text xml:space="preserve" text-anchor="middle" x="86" y="-473.07" font-family="Helvetica,sans-Serif" font-weight="bold" font-size="9.00">jsdoc_default</text>
</g>
<g id="clust3" class="cluster">
<title>cluster_jsdoc_default/@twyr</title>
<path fill="#ffffff" stroke="black" stroke-width="2" d="M28,-236.62C28,-236.62 144,-236.62 144,-236.62 150,-236.62 156,-242.62 156,-248.62 156,-248.62 156,-446.62 156,-446.62 156,-452.62 150,-458.62 144,-458.62 144,-458.62 28,-458.62 28,-458.62 22,-458.62 16,-452.62 16,-446.62 16,-446.62 16,-248.62 16,-248.62 16,-242.62 22,-236.62 28,-236.62"/>
<text xml:space="preserve" text-anchor="middle" x="86" y="-446.07" font-family="Helvetica,sans-Serif" font-weight="bold" font-size="9.00">@twyr</text>
</g>
<g id="clust4" class="cluster">
<title>cluster_jsdoc_default/@twyr/framework&#45;classes</title>
<path fill="#ffffff" stroke="black" stroke-width="2" d="M36,-244.62C36,-244.62 136,-244.62 136,-244.62 142,-244.62 148,-250.62 148,-256.62 148,-256.62 148,-419.62 148,-419.62 148,-425.62 142,-431.62 136,-431.62 136,-431.62 36,-431.62 36,-431.62 30,-431.62 24,-425.62 24,-419.62 24,-419.62 24,-256.62 24,-256.62 24,-250.62 30,-244.62 36,-244.62"/>
<text xml:space="preserve" text-anchor="middle" x="86" y="-419.07" font-family="Helvetica,sans-Serif" font-weight="bold" font-size="9.00">framework&#45;classes</text>
</g>
<g id="clust5" class="cluster">
<title>cluster_jsdoc_default/@twyr/framework&#45;classes/0.2.0</title>
<path fill="#ffffff" stroke="black" stroke-width="2" d="M44,-252.62C44,-252.62 128,-252.62 128,-252.62 134,-252.62 140,-258.62 140,-264.62 140,-264.62 140,-392.62 140,-392.62 140,-398.62 134,-404.62 128,-404.62 128,-404.62 44,-404.62 44,-404.62 38,-404.62 32,-398.62 32,-392.62 32,-392.62 32,-264.62 32,-264.62 32,-258.62 38,-252.62 44,-252.62"/>
<text xml:space="preserve" text-anchor="middle" x="86" y="-392.07" font-family="Helvetica,sans-Serif" font-weight="bold" font-size="9.00">0.2.0</text>
</g>
<g id="clust6" class="cluster">
<title>cluster_jsdoc_default/@twyr/framework&#45;classes/0.2.0/scripts</title>
<path fill="#ffffff" stroke="black" stroke-width="2" d="M52,-260.62C52,-260.62 120,-260.62 120,-260.62 126,-260.62 132,-266.62 132,-272.62 132,-272.62 132,-365.62 132,-365.62 132,-371.62 126,-377.62 120,-377.62 120,-377.62 52,-377.62 52,-377.62 46,-377.62 40,-371.62 40,-365.62 40,-365.62 40,-272.62 40,-272.62 40,-266.62 46,-260.62 52,-260.62"/>
<text xml:space="preserve" text-anchor="middle" x="86" y="-365.07" font-family="Helvetica,sans-Serif" font-weight="bold" font-size="9.00">scripts</text>
</g>
<g id="clust7" class="cluster">
<title>cluster_lib</title>
<path fill="#ffffff" stroke="black" stroke-width="2" d="M184,-36.62C184,-36.62 594.88,-36.62 594.88,-36.62 600.88,-36.62 606.88,-42.62 606.88,-48.62 606.88,-48.62 606.88,-107.62 606.88,-107.62 606.88,-113.62 600.88,-119.62 594.88,-119.62 594.88,-119.62 184,-119.62 184,-119.62 178,-119.62 172,-113.62 172,-107.62 172,-107.62 172,-48.62 172,-48.62 172,-42.62 178,-36.62 184,-36.62"/>
<text xml:space="preserve" text-anchor="middle" x="389.44" y="-107.08" font-family="Helvetica,sans-Serif" font-weight="bold" font-size="9.00">lib</text>
</g>
<g id="clust8" class="cluster">
<title>cluster_node_modules</title>
<path fill="#ffffff" stroke="black" stroke-width="2" d="M500.25,-155.62C500.25,-155.62 602.75,-155.62 602.75,-155.62 608.75,-155.62 614.75,-161.62 614.75,-167.62 614.75,-167.62 614.75,-630.62 614.75,-630.62 614.75,-636.62 608.75,-642.62 602.75,-642.62 602.75,-642.62 500.25,-642.62 500.25,-642.62 494.25,-642.62 488.25,-636.62 488.25,-630.62 488.25,-630.62 488.25,-167.62 488.25,-167.62 488.25,-161.62 494.25,-155.62 500.25,-155.62"/>
<text xml:space="preserve" text-anchor="middle" x="551.5" y="-630.08" font-family="Helvetica,sans-Serif" font-weight="bold" font-size="9.00">node_modules</text>
</g>
<g id="clust9" class="cluster">
<title>cluster_node_modules/@eslint</title>
<path fill="#ffffff" stroke="black" stroke-width="2" d="M528.5,-501.62C528.5,-501.62 574.5,-501.62 574.5,-501.62 580.5,-501.62 586.5,-507.62 586.5,-513.62 586.5,-513.62 586.5,-544.62 586.5,-544.62 586.5,-550.62 580.5,-556.62 574.5,-556.62 574.5,-556.62 528.5,-556.62 528.5,-556.62 522.5,-556.62 516.5,-550.62 516.5,-544.62 516.5,-544.62 516.5,-513.62 516.5,-513.62 516.5,-507.62 522.5,-501.62 528.5,-501.62"/>
<text xml:space="preserve" text-anchor="middle" x="551.5" y="-544.08" font-family="Helvetica,sans-Serif" font-weight="bold" font-size="9.00">@eslint</text>
</g>
<g id="clust10" class="cluster">
<title>cluster_tests</title>
<path fill="#ffffff" stroke="black" stroke-width="2" d="M387.5,-190.62C387.5,-190.62 468.25,-190.62 468.25,-190.62 474.25,-190.62 480.25,-196.62 480.25,-202.62 480.25,-202.62 480.25,-264.62 480.25,-264.62 480.25,-270.62 474.25,-276.62 468.25,-276.62 468.25,-276.62 387.5,-276.62 387.5,-276.62 381.5,-276.62 375.5,-270.62 375.5,-264.62 375.5,-264.62 375.5,-202.62 375.5,-202.62 375.5,-196.62 381.5,-190.62 387.5,-190.62"/>
<text xml:space="preserve" text-anchor="middle" x="427.88" y="-264.07" font-family="Helvetica,sans-Serif" font-weight="bold" font-size="9.00">tests</text>
</g>
<!-- .dependency&#45;cruiser.cjs -->
<g id="node1" class="node">
<title>.dependency&#45;cruiser.cjs</title>
<g id="a_node1"><a xlink:href=".dependency-cruiser.cjs" xlink:title=".dependency&#45;cruiser.cjs">
<path fill="#ccffcc" stroke="black" d="M140.83,-19.25C140.83,-19.25 31.17,-19.25 31.17,-19.25 27.96,-19.25 24.75,-16.04 24.75,-12.83 24.75,-12.83 24.75,-6.42 24.75,-6.42 24.75,-3.21 27.96,0 31.17,0 31.17,0 140.83,0 140.83,0 144.04,0 147.25,-3.21 147.25,-6.42 147.25,-6.42 147.25,-12.83 147.25,-12.83 147.25,-16.04 144.04,-19.25 140.83,-19.25"/>
<text xml:space="preserve" text-anchor="start" x="32.75" y="-6.25" font-family="Helvetica,sans-Serif" font-size="9.00">.dependency&#45;cruiser.cjs</text>
</a>
</g>
</g>
<!-- buffer -->
<g id="node2" class="node">
<title>buffer</title>
<g id="a_node2"><a xlink:href="https://nodejs.org/api/buffer.html" xlink:title="buffer">
<path fill="#ffffcc" stroke="grey" d="M448.46,-431.25C448.46,-431.25 407.29,-431.25 407.29,-431.25 404.08,-431.25 400.88,-428.04 400.88,-424.83 400.88,-424.83 400.88,-418.42 400.88,-418.42 400.88,-415.21 404.08,-412 407.29,-412 407.29,-412 448.46,-412 448.46,-412 451.67,-412 454.88,-415.21 454.88,-418.42 454.88,-418.42 454.88,-424.83 454.88,-424.83 454.88,-428.04 451.67,-431.25 448.46,-431.25"/>
<text xml:space="preserve" text-anchor="start" x="414.38" y="-418.25" font-family="Helvetica,sans-Serif" font-size="9.00" fill="grey">buffer</text>
</a>
</g>
</g>
<!-- eslint.config.js -->
<g id="node3" class="node">
<title>eslint.config.js</title>
<g id="a_node3"><a xlink:href="eslint.config.js" xlink:title="eslint.config.js">
<path fill="#ffffcc" stroke="black" d="M461.71,-400.25C461.71,-400.25 394.04,-400.25 394.04,-400.25 390.83,-400.25 387.62,-397.04 387.62,-393.83 387.62,-393.83 387.62,-387.42 387.62,-387.42 387.62,-384.21 390.83,-381 394.04,-381 394.04,-381 461.71,-381 461.71,-381 464.92,-381 468.12,-384.21 468.12,-387.42 468.12,-387.42 468.12,-393.83 468.12,-393.83 468.12,-397.04 464.92,-400.25 461.71,-400.25"/>
<text xml:space="preserve" text-anchor="start" x="395.62" y="-387.25" font-family="Helvetica,sans-Serif" font-size="9.00">eslint.config.js</text>
</a>
</g>
</g>
<!-- node_modules/@eslint/js -->
<g id="node4" class="node">
<title>node_modules/@eslint/js</title>
<g id="a_node4"><a xlink:href="https://www.npmjs.com/package/@eslint/js" xlink:title="js">
<polygon fill="#c40b0a" fill-opacity="0.101961" stroke="black" points="578.5,-529.25 526.64,-529.25 524.5,-527.11 524.5,-510 576.36,-510 578.5,-512.14 578.5,-529.25"/>
<polyline fill="none" stroke="black" points="576.36,-527.11 524.5,-527.11"/>
<polyline fill="none" stroke="black" points="576.36,-527.11 576.36,-510"/>
<polyline fill="none" stroke="black" points="576.36,-527.11 578.5,-529.25"/>
<text xml:space="preserve" text-anchor="start" x="548.12" y="-516.25" font-family="Helvetica,sans-Serif" font-size="9.00" fill="#c40b0a">js</text>
</a>
</g>
</g>
<!-- eslint.config.js&#45;&gt;node_modules/@eslint/js -->
<g id="edge1" class="edge">
<title>eslint.config.js&#45;&gt;node_modules/@eslint/js</title>
<path fill="none" stroke="#000000" stroke-opacity="0.200000" d="M468.44,-396.64C472.97,-398.82 477.08,-401.73 480.25,-405.62 494.32,-422.91 473.64,-488.79 488.25,-505.62 495.39,-513.85 506.22,-517.82 516.86,-519.6"/>
<polygon fill="#000000" fill-opacity="0.200000" stroke="#000000" stroke-opacity="0.200000" points="516.44,-521.66 522.65,-520.31 516.95,-517.49 516.44,-521.66"/>
</g>
<!-- node_modules/eslint&#45;plugin&#45;jsdoc -->
<g id="node5" class="node">
<title>node_modules/eslint&#45;plugin&#45;jsdoc</title>
<g id="a_node5"><a xlink:href="https://www.npmjs.com/package/eslint-plugin-jsdoc" xlink:title="eslint&#45;plugin&#45;jsdoc">
<polygon fill="#c40b0a" fill-opacity="0.101961" stroke="black" points="600.38,-584.25 504.76,-584.25 502.62,-582.11 502.62,-565 598.24,-565 600.38,-567.14 600.38,-584.25"/>
<polyline fill="none" stroke="black" points="598.24,-582.11 502.62,-582.11"/>
<polyline fill="none" stroke="black" points="598.24,-582.11 598.24,-565"/>
<polyline fill="none" stroke="black" points="598.24,-582.11 600.38,-584.25"/>
<text xml:space="preserve" text-anchor="start" x="510.62" y="-571.25" font-family="Helvetica,sans-Serif" font-size="9.00" fill="#c40b0a">eslint&#45;plugin&#45;jsdoc</text>
</a>
</g>
</g>
<!-- eslint.config.js&#45;&gt;node_modules/eslint&#45;plugin&#45;jsdoc -->
<g id="edge2" class="edge">
<title>eslint.config.js&#45;&gt;node_modules/eslint&#45;plugin&#45;jsdoc</title>
<path fill="none" stroke="#000000" stroke-opacity="0.200000" d="M468.54,-396.55C473.05,-398.75 477.14,-401.69 480.25,-405.62 501.51,-432.5 466.35,-533.26 488.25,-559.62 490.49,-562.32 493.11,-564.57 496,-566.46"/>
<polygon fill="#000000" fill-opacity="0.200000" stroke="#000000" stroke-opacity="0.200000" points="494.64,-568.11 500.92,-569.12 496.64,-564.42 494.64,-568.11"/>
</g>
<!-- node_modules/eslint&#45;plugin&#45;jsonc -->
<g id="node6" class="node">
<title>node_modules/eslint&#45;plugin&#45;jsonc</title>
<g id="a_node6"><a xlink:href="https://www.npmjs.com/package/eslint-plugin-jsonc" xlink:title="eslint&#45;plugin&#45;jsonc">
<polygon fill="#c40b0a" fill-opacity="0.101961" stroke="black" points="600.38,-276.25 504.76,-276.25 502.62,-274.11 502.62,-257 598.24,-257 600.38,-259.14 600.38,-276.25"/>
<polyline fill="none" stroke="black" points="598.24,-274.11 502.62,-274.11"/>
<polyline fill="none" stroke="black" points="598.24,-274.11 598.24,-257"/>
<polyline fill="none" stroke="black" points="598.24,-274.11 600.38,-276.25"/>
<text xml:space="preserve" text-anchor="start" x="510.62" y="-263.25" font-family="Helvetica,sans-Serif" font-size="9.00" fill="#c40b0a">eslint&#45;plugin&#45;jsonc</text>
</a>
</g>
</g>
<!-- eslint.config.js&#45;&gt;node_modules/eslint&#45;plugin&#45;jsonc -->
<g id="edge3" class="edge">
<title>eslint.config.js&#45;&gt;node_modules/eslint&#45;plugin&#45;jsonc</title>
<path fill="none" stroke="#000000" stroke-opacity="0.200000" d="M436.57,-380.83C447.66,-366.28 468.13,-337.75 480.25,-310.62 485.7,-298.42 478.64,-290.92 488.25,-281.62 490.5,-279.45 493,-277.57 495.68,-275.95"/>
<polygon fill="#000000" fill-opacity="0.200000" stroke="#000000" stroke-opacity="0.200000" points="496.47,-277.91 500.86,-273.31 494.56,-274.17 496.47,-277.91"/>
</g>
<!-- node_modules/eslint&#45;plugin&#45;mocha -->
<g id="node7" class="node">
<title>node_modules/eslint&#45;plugin&#45;mocha</title>
<g id="a_node7"><a xlink:href="https://www.npmjs.com/package/eslint-plugin-mocha" xlink:title="eslint&#45;plugin&#45;mocha">
<polygon fill="#c40b0a" fill-opacity="0.101961" stroke="black" points="604.12,-307.25 501.01,-307.25 498.88,-305.11 498.88,-288 601.99,-288 604.12,-290.14 604.12,-307.25"/>
<polyline fill="none" stroke="black" points="601.99,-305.11 498.88,-305.11"/>
<polyline fill="none" stroke="black" points="601.99,-305.11 601.99,-288"/>
<polyline fill="none" stroke="black" points="601.99,-305.11 604.12,-307.25"/>
<text xml:space="preserve" text-anchor="start" x="506.88" y="-294.25" font-family="Helvetica,sans-Serif" font-size="9.00" fill="#c40b0a">eslint&#45;plugin&#45;mocha</text>
</a>
</g>
</g>
<!-- eslint.config.js&#45;&gt;node_modules/eslint&#45;plugin&#45;mocha -->
<g id="edge4" class="edge">
<title>eslint.config.js&#45;&gt;node_modules/eslint&#45;plugin&#45;mocha</title>
<path fill="none" stroke="#000000" stroke-opacity="0.200000" d="M433.55,-380.74C442,-363.98 461.46,-330.11 488.25,-312.62 489.44,-311.85 490.66,-311.12 491.91,-310.42"/>
<polygon fill="#000000" fill-opacity="0.200000" stroke="#000000" stroke-opacity="0.200000" points="492.57,-312.43 497.03,-307.91 490.72,-308.66 492.57,-312.43"/>
</g>
<!-- node_modules/eslint&#45;plugin&#45;n -->
<g id="node8" class="node">
<title>node_modules/eslint&#45;plugin&#45;n</title>
<g id="a_node8"><a xlink:href="https://www.npmjs.com/package/eslint-plugin-n" xlink:title="eslint&#45;plugin&#45;n">
<polygon fill="#c40b0a" fill-opacity="0.101961" stroke="black" points="591.75,-338.25 513.39,-338.25 511.25,-336.11 511.25,-319 589.61,-319 591.75,-321.14 591.75,-338.25"/>
<polyline fill="none" stroke="black" points="589.61,-336.11 511.25,-336.11"/>
<polyline fill="none" stroke="black" points="589.61,-336.11 589.61,-319"/>
<polyline fill="none" stroke="black" points="589.61,-336.11 591.75,-338.25"/>
<text xml:space="preserve" text-anchor="start" x="519.25" y="-325.25" font-family="Helvetica,sans-Serif" font-size="9.00" fill="#c40b0a">eslint&#45;plugin&#45;n</text>
</a>
</g>
</g>
<!-- eslint.config.js&#45;&gt;node_modules/eslint&#45;plugin&#45;n -->
<g id="edge5" class="edge">
<title>eslint.config.js&#45;&gt;node_modules/eslint&#45;plugin&#45;n</title>
<path fill="none" stroke="#000000" stroke-opacity="0.200000" d="M438.45,-380.82C449.49,-370.1 468.63,-353.18 488.25,-343.62 493.24,-341.2 498.65,-339.14 504.13,-337.41"/>
<polygon fill="#000000" fill-opacity="0.200000" stroke="#000000" stroke-opacity="0.200000" points="504.45,-339.51 509.62,-335.81 503.28,-335.48 504.45,-339.51"/>
</g>
<!-- node_modules/eslint&#45;plugin&#45;prettier -->
<g id="node9" class="node">
<title>node_modules/eslint&#45;plugin&#45;prettier</title>
<g id="a_node9"><a xlink:href="https://www.npmjs.com/package/eslint-plugin-prettier" xlink:title="eslint&#45;plugin&#45;prettier">
<polygon fill="#c40b0a" fill-opacity="0.101961" stroke="black" points="605.62,-369.25 499.51,-369.25 497.38,-367.11 497.38,-350 603.49,-350 605.62,-352.14 605.62,-369.25"/>
<polyline fill="none" stroke="black" points="603.49,-367.11 497.38,-367.11"/>
<polyline fill="none" stroke="black" points="603.49,-367.11 603.49,-350"/>
<polyline fill="none" stroke="black" points="603.49,-367.11 605.62,-369.25"/>
<text xml:space="preserve" text-anchor="start" x="505.38" y="-356.25" font-family="Helvetica,sans-Serif" font-size="9.00" fill="#c40b0a">eslint&#45;plugin&#45;prettier</text>
</a>
</g>
</g>
<!-- eslint.config.js&#45;&gt;node_modules/eslint&#45;plugin&#45;prettier -->
<g id="edge6" class="edge">
<title>eslint.config.js&#45;&gt;node_modules/eslint&#45;plugin&#45;prettier</title>
<path fill="none" stroke="#000000" stroke-opacity="0.200000" d="M465.58,-380.57C473.07,-378.56 480.91,-376.5 488.25,-374.62 492.32,-373.59 496.55,-372.53 500.79,-371.48"/>
<polygon fill="#000000" fill-opacity="0.200000" stroke="#000000" stroke-opacity="0.200000" points="501.14,-373.55 506.47,-370.08 500.14,-369.48 501.14,-373.55"/>
</g>
<!-- node_modules/eslint&#45;plugin&#45;security -->
<g id="node10" class="node">
<title>node_modules/eslint&#45;plugin&#45;security</title>
<g id="a_node10"><a xlink:href="https://www.npmjs.com/package/eslint-plugin-security" xlink:title="eslint&#45;plugin&#45;security">
<polygon fill="#c40b0a" fill-opacity="0.101961" stroke="black" points="606.75,-400.25 498.39,-400.25 496.25,-398.11 496.25,-381 604.61,-381 606.75,-383.14 606.75,-400.25"/>
<polyline fill="none" stroke="black" points="604.61,-398.11 496.25,-398.11"/>
<polyline fill="none" stroke="black" points="604.61,-398.11 604.61,-381"/>
<polyline fill="none" stroke="black" points="604.61,-398.11 606.75,-400.25"/>
<text xml:space="preserve" text-anchor="start" x="504.25" y="-387.25" font-family="Helvetica,sans-Serif" font-size="9.00" fill="#c40b0a">eslint&#45;plugin&#45;security</text>
</a>
</g>
</g>
<!-- eslint.config.js&#45;&gt;node_modules/eslint&#45;plugin&#45;security -->
<g id="edge7" class="edge">
<title>eslint.config.js&#45;&gt;node_modules/eslint&#45;plugin&#45;security</title>
<path fill="none" stroke="#000000" stroke-opacity="0.200000" d="M468.36,-390.62C474.88,-390.62 481.78,-390.62 488.69,-390.62"/>
<polygon fill="#000000" fill-opacity="0.200000" stroke="#000000" stroke-opacity="0.200000" points="488.67,-392.73 494.67,-390.63 488.67,-388.53 488.67,-392.73"/>
</g>
<!-- node_modules/eslint&#45;plugin&#45;unicorn -->
<g id="node11" class="node">
<title>node_modules/eslint&#45;plugin&#45;unicorn</title>
<g id="a_node11"><a xlink:href="https://www.npmjs.com/package/eslint-plugin-unicorn" xlink:title="eslint&#45;plugin&#45;unicorn">
<polygon fill="#c40b0a" fill-opacity="0.101961" stroke="black" points="606,-431.25 499.14,-431.25 497,-429.11 497,-412 603.86,-412 606,-414.14 606,-431.25"/>
<polyline fill="none" stroke="black" points="603.86,-429.11 497,-429.11"/>
<polyline fill="none" stroke="black" points="603.86,-429.11 603.86,-412"/>
<polyline fill="none" stroke="black" points="603.86,-429.11 606,-431.25"/>
<text xml:space="preserve" text-anchor="start" x="505" y="-418.25" font-family="Helvetica,sans-Serif" font-size="9.00" fill="#c40b0a">eslint&#45;plugin&#45;unicorn</text>
</a>
</g>
</g>
<!-- eslint.config.js&#45;&gt;node_modules/eslint&#45;plugin&#45;unicorn -->
<g id="edge8" class="edge">
<title>eslint.config.js&#45;&gt;node_modules/eslint&#45;plugin&#45;unicorn</title>
<path fill="none" stroke="#000000" stroke-opacity="0.200000" d="M465.58,-400.68C473.07,-402.69 480.91,-404.75 488.25,-406.62 492.32,-407.66 496.55,-408.72 500.79,-409.77"/>
<polygon fill="#000000" fill-opacity="0.200000" stroke="#000000" stroke-opacity="0.200000" points="500.14,-411.77 506.47,-411.17 501.14,-407.7 500.14,-411.77"/>
</g>
<!-- node_modules/eslint -->
<g id="node12" class="node">
<title>node_modules/eslint</title>
<g id="a_node12"><a xlink:href="https://www.npmjs.com/package/eslint" xlink:title="eslint">
<polygon fill="#c40b0a" fill-opacity="0.101961" stroke="black" points="578.5,-462.25 526.64,-462.25 524.5,-460.11 524.5,-443 576.36,-443 578.5,-445.14 578.5,-462.25"/>
<polyline fill="none" stroke="black" points="576.36,-460.11 524.5,-460.11"/>
<polyline fill="none" stroke="black" points="576.36,-460.11 576.36,-443"/>
<polyline fill="none" stroke="black" points="576.36,-460.11 578.5,-462.25"/>
<text xml:space="preserve" text-anchor="start" x="539.5" y="-449.25" font-family="Helvetica,sans-Serif" font-size="9.00" fill="#c40b0a">eslint</text>
</a>
</g>
</g>
<!-- eslint.config.js&#45;&gt;node_modules/eslint -->
<g id="edge9" class="edge">
<title>eslint.config.js&#45;&gt;node_modules/eslint</title>
<path fill="none" stroke="#000000" stroke-opacity="0.200000" d="M468.37,-397.39C472.79,-399.46 476.9,-402.14 480.25,-405.62 490.41,-416.19 477.84,-427.3 488.25,-437.62 495.81,-445.12 506.42,-449.11 516.75,-451.16"/>
<polygon fill="#000000" fill-opacity="0.200000" stroke="#000000" stroke-opacity="0.200000" points="516.42,-453.23 522.67,-452.1 517.08,-449.09 516.42,-453.23"/>
</g>
<!-- node_modules/globals -->
<g id="node13" class="node">
<title>node_modules/globals</title>
<g id="a_node13"><a xlink:href="https://www.npmjs.com/package/globals" xlink:title="globals">
<polygon fill="#c40b0a" fill-opacity="0.101961" stroke="black" points="578.5,-493.25 526.64,-493.25 524.5,-491.11 524.5,-474 576.36,-474 578.5,-476.14 578.5,-493.25"/>
<polyline fill="none" stroke="black" points="576.36,-491.11 524.5,-491.11"/>
<polyline fill="none" stroke="black" points="576.36,-491.11 576.36,-474"/>
<polyline fill="none" stroke="black" points="576.36,-491.11 578.5,-493.25"/>
<text xml:space="preserve" text-anchor="start" x="535.75" y="-480.25" font-family="Helvetica,sans-Serif" font-size="9.00" fill="#c40b0a">globals</text>
</a>
</g>
</g>
<!-- eslint.config.js&#45;&gt;node_modules/globals -->
<g id="edge10" class="edge">
<title>eslint.config.js&#45;&gt;node_modules/globals</title>
<g id="a_edge10"><a xlink:title="no&#45;non&#45;package&#45;json">
<path fill="none" stroke="red" d="M468.52,-396.9C472.98,-399.04 477.05,-401.88 480.25,-405.62 498.57,-427.09 469.42,-447.6 488.25,-468.62 495.54,-476.77 506.41,-480.87 517.04,-482.83"/>
<polygon fill="red" stroke="red" points="516.58,-484.88 522.81,-483.66 517.17,-480.73 516.58,-484.88"/>
</a>
</g>
<text xml:space="preserve" text-anchor="middle" x="437.12" y="-440.24" font-family="Helvetica,sans-Serif" font-size="9.00" fill="red">no&#45;non&#45;package&#45;json</text>
</g>
<!-- gruntfile.cjs -->
<g id="node14" class="node">
<title>gruntfile.cjs</title>
<g id="a_node14"><a xlink:href="gruntfile.cjs" xlink:title="gruntfile.cjs">
<path fill="#ffffcc" stroke="black" d="M456.08,-304.25C456.08,-304.25 399.67,-304.25 399.67,-304.25 396.46,-304.25 393.25,-301.04 393.25,-297.83 393.25,-297.83 393.25,-291.42 393.25,-291.42 393.25,-288.21 396.46,-285 399.67,-285 399.67,-285 456.08,-285 456.08,-285 459.29,-285 462.5,-288.21 462.5,-291.42 462.5,-291.42 462.5,-297.83 462.5,-297.83 462.5,-301.04 459.29,-304.25 456.08,-304.25"/>
<text xml:space="preserve" text-anchor="start" x="401.25" y="-291.25" font-family="Helvetica,sans-Serif" font-size="9.00">gruntfile.cjs</text>
</a>
</g>
</g>
<!-- node_modules/load&#45;grunt&#45;tasks -->
<g id="node15" class="node">
<title>node_modules/load&#45;grunt&#45;tasks</title>
<g id="a_node15"><a xlink:href="https://www.npmjs.com/package/load-grunt-tasks" xlink:title="load&#45;grunt&#45;tasks">
<polygon fill="#c40b0a" fill-opacity="0.101961" stroke="black" points="596.25,-245.25 508.89,-245.25 506.75,-243.11 506.75,-226 594.11,-226 596.25,-228.14 596.25,-245.25"/>
<polyline fill="none" stroke="black" points="594.11,-243.11 506.75,-243.11"/>
<polyline fill="none" stroke="black" points="594.11,-243.11 594.11,-226"/>
<polyline fill="none" stroke="black" points="594.11,-243.11 596.25,-245.25"/>
<text xml:space="preserve" text-anchor="start" x="514.75" y="-232.25" font-family="Helvetica,sans-Serif" font-size="9.00" fill="#c40b0a">load&#45;grunt&#45;tasks</text>
</a>
</g>
</g>
<!-- gruntfile.cjs&#45;&gt;node_modules/load&#45;grunt&#45;tasks -->
<g id="edge11" class="edge">
<title>gruntfile.cjs&#45;&gt;node_modules/load&#45;grunt&#45;tasks</title>
<path fill="none" stroke="#000000" stroke-opacity="0.200000" d="M462.8,-290C469.27,-287.75 475.49,-284.46 480.25,-279.62 489.63,-270.1 478.64,-259.92 488.25,-250.62 491.55,-247.43 495.41,-244.87 499.56,-242.84"/>
<polygon fill="#000000" fill-opacity="0.200000" stroke="#000000" stroke-opacity="0.200000" points="500.15,-244.86 504.89,-240.62 498.54,-240.99 500.15,-244.86"/>
</g>
<!-- helpers/loader.js -->
<g id="node16" class="node">
<title>helpers/loader.js</title>
<g id="a_node16"><a xlink:href="helpers/loader.js" xlink:title="loader.js">
<path fill="#ffffcc" stroke="black" d="M448.46,-155.25C448.46,-155.25 407.29,-155.25 407.29,-155.25 404.08,-155.25 400.88,-152.04 400.88,-148.83 400.88,-148.83 400.88,-142.42 400.88,-142.42 400.88,-139.21 404.08,-136 407.29,-136 407.29,-136 448.46,-136 448.46,-136 451.67,-136 454.88,-139.21 454.88,-142.42 454.88,-142.42 454.88,-148.83 454.88,-148.83 454.88,-152.04 451.67,-155.25 448.46,-155.25"/>
<text xml:space="preserve" text-anchor="start" x="409.88" y="-142.25" font-family="Helvetica,sans-Serif" font-size="9.00">loader.js</text>
</a>
</g>
</g>
<!-- node_modules/fdir -->
<g id="node17" class="node">
<title>node_modules/fdir</title>
<g id="a_node17"><a xlink:href="https://www.npmjs.com/package/fdir" xlink:title="fdir">
<polygon fill="#c40b0a" fill-opacity="0.101961" stroke="black" points="578.5,-183.25 526.64,-183.25 524.5,-181.11 524.5,-164 576.36,-164 578.5,-166.14 578.5,-183.25"/>
<polyline fill="none" stroke="black" points="576.36,-181.11 524.5,-181.11"/>
<polyline fill="none" stroke="black" points="576.36,-181.11 576.36,-164"/>
<polyline fill="none" stroke="black" points="576.36,-181.11 578.5,-183.25"/>
<text xml:space="preserve" text-anchor="start" x="544" y="-170.25" font-family="Helvetica,sans-Serif" font-size="9.00" fill="#c40b0a">fdir</text>
</a>
</g>
</g>
<!-- helpers/loader.js&#45;&gt;node_modules/fdir -->
<g id="edge12" class="edge">
<title>helpers/loader.js&#45;&gt;node_modules/fdir</title>
<path fill="none" stroke="#000000" stroke-opacity="0.200000" d="M455.27,-151.7C473.36,-155.87 497.5,-161.42 516.96,-165.9"/>
<polygon fill="#000000" fill-opacity="0.200000" stroke="#000000" stroke-opacity="0.200000" points="516.37,-167.92 522.69,-167.22 517.31,-163.83 516.37,-167.92"/>
</g>
<!-- path -->
<g id="node18" class="node">
<title>path</title>
<g id="a_node18"><a xlink:href="https://nodejs.org/api/path.html" xlink:title="path">
<path fill="#ffffcc" stroke="grey" d="M572.08,-147.25C572.08,-147.25 530.92,-147.25 530.92,-147.25 527.71,-147.25 524.5,-144.04 524.5,-140.83 524.5,-140.83 524.5,-134.42 524.5,-134.42 524.5,-131.21 527.71,-128 530.92,-128 530.92,-128 572.08,-128 572.08,-128 575.29,-128 578.5,-131.21 578.5,-134.42 578.5,-134.42 578.5,-140.83 578.5,-140.83 578.5,-144.04 575.29,-147.25 572.08,-147.25"/>
<text xml:space="preserve" text-anchor="start" x="541" y="-134.25" font-family="Helvetica,sans-Serif" font-size="9.00" fill="grey">path</text>
</a>
</g>
</g>
<!-- helpers/loader.js&#45;&gt;path -->
<g id="edge13" class="edge">
<title>helpers/loader.js&#45;&gt;path</title>
<path fill="none" stroke="#000000" stroke-dasharray="5,2" stroke-opacity="0.200000" d="M455.27,-143.89C473.28,-142.7 497.29,-141.12 516.7,-139.85"/>
<polygon fill="#000000" fill-opacity="0.200000" stroke="#000000" stroke-opacity="0.200000" points="516.8,-141.95 522.65,-139.46 516.53,-137.76 516.8,-141.95"/>
</g>
<!-- index.js -->
<g id="node19" class="node">
<title>index.js</title>
<g id="a_node19"><a xlink:href="index.js" xlink:title="index.js">
<path fill="#ffffcc" stroke="black" d="M106.58,-50.25C106.58,-50.25 65.42,-50.25 65.42,-50.25 62.21,-50.25 59,-47.04 59,-43.83 59,-43.83 59,-37.42 59,-37.42 59,-34.21 62.21,-31 65.42,-31 65.42,-31 106.58,-31 106.58,-31 109.79,-31 113,-34.21 113,-37.42 113,-37.42 113,-43.83 113,-43.83 113,-47.04 109.79,-50.25 106.58,-50.25"/>
<text xml:space="preserve" text-anchor="start" x="68.75" y="-37.25" font-family="Helvetica,sans-Serif" font-size="9.00">index.js</text>
</a>
</g>
</g>
<!-- lib/base_classes -->
<g id="node20" class="node">
<title>lib/base_classes</title>
<g id="a_node20"><a xlink:href="lib/base_classes" xlink:title="base_classes">
<polygon fill="#ffffcc" stroke="black" points="253,-92.25 182.14,-92.25 180,-90.11 180,-73 250.86,-73 253,-75.14 253,-92.25"/>
<polyline fill="none" stroke="black" points="250.86,-90.11 180,-90.11"/>
<polyline fill="none" stroke="black" points="250.86,-90.11 250.86,-73"/>
<polyline fill="none" stroke="black" points="250.86,-90.11 253,-92.25"/>
<text xml:space="preserve" text-anchor="start" x="188" y="-79.25" font-family="Helvetica,sans-Serif" font-size="9.00">base_classes</text>
</a>
</g>
</g>
<!-- index.js&#45;&gt;lib/base_classes -->
<g id="edge14" class="edge">
<title>index.js&#45;&gt;lib/base_classes</title>
<path fill="none" stroke="#000000" stroke-width="2" stroke-opacity="0.200000" d="M113.31,-49.23C132,-55.33 157.35,-63.62 178.13,-70.41"/>
<polygon fill="#000000" fill-opacity="0.200000" stroke="#000000" stroke-width="2" stroke-opacity="0.200000" points="183.1,-74.24 178.05,-70.38 184.4,-70.25 183.1,-74.24"/>
</g>
<!-- lib/evas&#45;base&#45;class.js -->
<g id="node21" class="node">
<title>lib/evas&#45;base&#45;class.js</title>
<g id="a_node21"><a xlink:href="lib/evas-base-class.js" xlink:title="evas&#45;base&#45;class.js">
<path fill="#ffffcc" stroke="black" d="M592.46,-75.25C592.46,-75.25 510.54,-75.25 510.54,-75.25 507.33,-75.25 504.12,-72.04 504.12,-68.83 504.12,-68.83 504.12,-62.42 504.12,-62.42 504.12,-59.21 507.33,-56 510.54,-56 510.54,-56 592.46,-56 592.46,-56 595.67,-56 598.88,-59.21 598.88,-62.42 598.88,-62.42 598.88,-68.83 598.88,-68.83 598.88,-72.04 595.67,-75.25 592.46,-75.25"/>
<text xml:space="preserve" text-anchor="start" x="512.12" y="-62.25" font-family="Helvetica,sans-Serif" font-size="9.00">evas&#45;base&#45;class.js</text>
</a>
</g>
</g>
<!-- index.js&#45;&gt;lib/evas&#45;base&#45;class.js -->
<g id="edge15" class="edge">
<title>index.js&#45;&gt;lib/evas&#45;base&#45;class.js</title>
<path fill="none" stroke="#000000" stroke-width="2" stroke-opacity="0.200000" d="M113.06,-37.15C176.55,-29.41 343.98,-13.34 480.25,-38.62 495.13,-41.39 510.92,-47.17 523.76,-52.69"/>
<polygon fill="#000000" fill-opacity="0.200000" stroke="#000000" stroke-width="2" stroke-opacity="0.200000" points="528.42,-57.04 523.78,-52.7 530.12,-53.2 528.42,-57.04"/>
</g>
<!-- lib/factories -->
<g id="node22" class="node">
<title>lib/factories</title>
<g id="a_node22"><a xlink:href="lib/factories" xlink:title="factories">
<polygon fill="#ffffcc" stroke="black" points="455,-64.25 402.89,-64.25 400.75,-62.11 400.75,-45 452.86,-45 455,-47.14 455,-64.25"/>
<polyline fill="none" stroke="black" points="452.86,-62.11 400.75,-62.11"/>
<polyline fill="none" stroke="black" points="452.86,-62.11 452.86,-45"/>
<polyline fill="none" stroke="black" points="452.86,-62.11 455,-64.25"/>
<text xml:space="preserve" text-anchor="start" x="408.75" y="-51.25" font-family="Helvetica,sans-Serif" font-size="9.00">factories</text>
</a>
</g>
</g>
<!-- index.js&#45;&gt;lib/factories -->
<g id="edge16" class="edge">
<title>index.js&#45;&gt;lib/factories</title>
<path fill="none" stroke="#000000" stroke-width="2" stroke-opacity="0.200000" d="M113.39,-41.71C174.48,-44.23 325.6,-50.45 393.22,-53.24"/>
<polygon fill="#000000" fill-opacity="0.200000" stroke="#000000" stroke-width="2" stroke-opacity="0.200000" points="399.19,-55.59 393.28,-53.24 399.36,-51.39 399.19,-55.59"/>
</g>
<!-- lib/lifecycle_managers -->
<g id="node23" class="node">
<title>lib/lifecycle_managers</title>
<g id="a_node23"><a xlink:href="lib/lifecycle_managers" xlink:title="lifecycle_managers">
<polygon fill="#ffffcc" stroke="black" points="367.5,-92.25 268.14,-92.25 266,-90.11 266,-73 365.36,-73 367.5,-75.14 367.5,-92.25"/>
<polyline fill="none" stroke="black" points="365.36,-90.11 266,-90.11"/>
<polyline fill="none" stroke="black" points="365.36,-90.11 365.36,-73"/>
<polyline fill="none" stroke="black" points="365.36,-90.11 367.5,-92.25"/>
<text xml:space="preserve" text-anchor="start" x="274" y="-79.25" font-family="Helvetica,sans-Serif" font-size="9.00">lifecycle_managers</text>
</a>
</g>
</g>
<!-- index.js&#45;&gt;lib/lifecycle_managers -->
<g id="edge17" class="edge">
<title>index.js&#45;&gt;lib/lifecycle_managers</title>
<path fill="none" stroke="#000000" stroke-width="2" stroke-opacity="0.200000" d="M113.3,-43.96C146.15,-48.31 203.99,-56.56 253,-66.62 259.15,-67.89 265.6,-69.36 271.92,-70.89"/>
<polygon fill="#000000" fill-opacity="0.200000" stroke="#000000" stroke-width="2" stroke-opacity="0.200000" points="277.25,-74.37 271.93,-70.89 278.25,-70.29 277.25,-74.37"/>
</g>
<!-- lib/base_classes&#45;&gt;lib/evas&#45;base&#45;class.js -->
<g id="edge18" class="edge">
<title>lib/base_classes&#45;&gt;lib/evas&#45;base&#45;class.js</title>
<path fill="none" stroke="#000000" stroke-width="2" stroke-opacity="0.200000" d="M243.05,-72.51C250.34,-70.09 258.38,-67.85 266,-66.62 310.54,-59.47 323.6,-56.26 367.5,-66.62 371.37,-67.54 371.63,-69.71 375.5,-70.62 420.81,-81.32 433.72,-72.28 480.25,-70.62 484.98,-70.46 489.9,-70.22 494.82,-69.95"/>
<polygon fill="#000000" fill-opacity="0.200000" stroke="#000000" stroke-width="2" stroke-opacity="0.200000" points="494.78,-72.06 500.65,-69.6 494.53,-67.87 494.78,-72.06"/>
</g>
<!-- lib/base_classes&#45;&gt;lib/lifecycle_managers -->
<g id="edge19" class="edge">
<title>lib/base_classes&#45;&gt;lib/lifecycle_managers</title>
<path fill="none" stroke="#000000" stroke-width="2" stroke-opacity="0.200000" d="M253.25,-82.62C254.39,-82.62 255.54,-82.62 256.7,-82.62"/>
<polygon fill="#000000" fill-opacity="0.200000" stroke="#000000" stroke-width="2" stroke-opacity="0.200000" points="256.67,-84.73 262.67,-82.63 256.67,-80.53 256.67,-84.73"/>
</g>
<!-- node_modules/lodash.merge -->
<g id="node27" class="node">
<title>node_modules/lodash.merge</title>
<g id="a_node27"><a xlink:href="https://www.npmjs.com/package/lodash.merge" xlink:title="lodash.merge">
<polygon fill="#c40b0a" fill-opacity="0.101961" stroke="black" points="590.25,-615.25 514.89,-615.25 512.75,-613.11 512.75,-596 588.11,-596 590.25,-598.14 590.25,-615.25"/>
<polyline fill="none" stroke="black" points="588.11,-613.11 512.75,-613.11"/>
<polyline fill="none" stroke="black" points="588.11,-613.11 588.11,-596"/>
<polyline fill="none" stroke="black" points="588.11,-613.11 590.25,-615.25"/>
<text xml:space="preserve" text-anchor="start" x="520.75" y="-602.25" font-family="Helvetica,sans-Serif" font-size="9.00" fill="#c40b0a">lodash.merge</text>
</a>
</g>
</g>
<!-- lib/base_classes&#45;&gt;node_modules/lodash.merge -->
<g id="edge20" class="edge">
<title>lib/base_classes&#45;&gt;node_modules/lodash.merge</title>
<g id="a_edge20"><a xlink:title="no&#45;non&#45;package&#45;json">
<path fill="none" stroke="red" d="M221.03,-92.61C236.39,-135.5 300.02,-307.88 375.5,-437.62 417.98,-510.64 417.88,-543.9 488.25,-590.62 493.44,-594.07 499.35,-596.73 505.4,-598.78"/>
<polygon fill="red" stroke="red" points="504.74,-600.77 511.09,-600.48 505.94,-596.75 504.74,-600.77"/>
</a>
</g>
<text xml:space="preserve" text-anchor="middle" x="288.27" y="-353.96" font-family="Helvetica,sans-Serif" font-size="9.00" fill="red">no&#45;non&#45;package&#45;json</text>
</g>
<!-- lib/factories&#45;&gt;lib/evas&#45;base&#45;class.js -->
<g id="edge21" class="edge">
<title>lib/factories&#45;&gt;lib/evas&#45;base&#45;class.js</title>
<path fill="none" stroke="#000000" stroke-width="2" stroke-opacity="0.200000" d="M455.27,-57.01C467.07,-58.08 481.45,-59.38 495.43,-60.64"/>
<polygon fill="#000000" fill-opacity="0.200000" stroke="#000000" stroke-width="2" stroke-opacity="0.200000" points="494.87,-62.7 501.03,-61.15 495.25,-58.52 494.87,-62.7"/>
</g>
<!-- lib/lifecycle_managers&#45;&gt;buffer -->
<g id="edge23" class="edge">
<title>lib/lifecycle_managers&#45;&gt;buffer</title>
<path fill="none" stroke="#000000" stroke-dasharray="5,2" stroke-opacity="0.200000" d="M318.15,-92.62C320.33,-141.9 332.27,-358.47 375.5,-406.62 380.29,-411.97 386.87,-415.45 393.72,-417.71"/>
<polygon fill="#000000" fill-opacity="0.200000" stroke="#000000" stroke-opacity="0.200000" points="392.81,-419.64 399.15,-419.19 393.91,-415.58 392.81,-419.64"/>
</g>
<!-- lib/lifecycle_managers&#45;&gt;helpers/loader.js -->
<g id="edge24" class="edge">
<title>lib/lifecycle_managers&#45;&gt;helpers/loader.js</title>
<path fill="none" stroke="#000000" stroke-width="2" stroke-opacity="0.200000" d="M330.6,-92.56C342.02,-101.13 359.35,-113.52 375.5,-122.62 381.24,-125.86 387.51,-128.98 393.64,-131.83"/>
<polygon fill="#000000" fill-opacity="0.200000" stroke="#000000" stroke-width="2" stroke-opacity="0.200000" points="392.76,-133.74 399.1,-134.29 394.49,-129.91 392.76,-133.74"/>
</g>
<!-- lib/lifecycle_managers&#45;&gt;path -->
<g id="edge26" class="edge">
<title>lib/lifecycle_managers&#45;&gt;path</title>
<path fill="none" stroke="#000000" stroke-dasharray="5,2" stroke-opacity="0.200000" d="M360.44,-92.71C405.5,-103.36 475.61,-119.93 516.9,-129.68"/>
<polygon fill="#000000" fill-opacity="0.200000" stroke="#000000" stroke-opacity="0.200000" points="516.22,-131.68 522.54,-131.02 517.18,-127.59 516.22,-131.68"/>
</g>
<!-- lib/lifecycle_managers&#45;&gt;lib/evas&#45;base&#45;class.js -->
<g id="edge25" class="edge">
<title>lib/lifecycle_managers&#45;&gt;lib/evas&#45;base&#45;class.js</title>
<path fill="none" stroke="#000000" stroke-width="2" stroke-opacity="0.200000" d="M367.7,-85.12C399.93,-86.04 442.7,-85.96 480.25,-81.62 488.19,-80.71 496.54,-79.25 504.61,-77.58"/>
<polygon fill="#000000" fill-opacity="0.200000" stroke="#000000" stroke-width="2" stroke-opacity="0.200000" points="504.84,-79.68 510.25,-76.35 503.94,-75.58 504.84,-79.68"/>
</g>
<!-- lib/lifecycle_managers&#45;&gt;lib/factories -->
<g id="edge22" class="edge">
<title>lib/lifecycle_managers&#45;&gt;lib/factories</title>
<path fill="none" stroke="#000000" stroke-width="2" stroke-opacity="0.200000" d="M357.15,-72.52C368.52,-69.6 380.84,-66.44 391.92,-63.59"/>
<polygon fill="#000000" fill-opacity="0.200000" stroke="#000000" stroke-width="2" stroke-opacity="0.200000" points="392.27,-65.67 397.56,-62.15 391.23,-61.6 392.27,-65.67"/>
</g>
<!-- jsdoc_default/@twyr/framework&#45;classes/0.2.0/scripts/app.min.js -->
<g id="node24" class="node">
<title>jsdoc_default/@twyr/framework&#45;classes/0.2.0/scripts/app.min.js</title>
<g id="a_node24"><a xlink:href="jsdoc_default/@twyr/framework-classes/0.2.0/scripts/app.min.js" xlink:title="no&#45;orphans">
<path fill="#ccffcc" stroke="orange" d="M111.21,-288.25C111.21,-288.25 60.79,-288.25 60.79,-288.25 57.58,-288.25 54.38,-285.04 54.38,-281.83 54.38,-281.83 54.38,-275.42 54.38,-275.42 54.38,-272.21 57.58,-269 60.79,-269 60.79,-269 111.21,-269 111.21,-269 114.42,-269 117.62,-272.21 117.62,-275.42 117.62,-275.42 117.62,-281.83 117.62,-281.83 117.62,-285.04 114.42,-288.25 111.21,-288.25"/>
<text xml:space="preserve" text-anchor="start" x="62.38" y="-275.25" font-family="Helvetica,sans-Serif" font-size="9.00" fill="orange">app.min.js</text>
</a>
</g>
</g>
<!-- jsdoc_default/@twyr/framework&#45;classes/0.2.0/scripts/linenumber.js -->
<g id="node25" class="node">
<title>jsdoc_default/@twyr/framework&#45;classes/0.2.0/scripts/linenumber.js</title>
<g id="a_node25"><a xlink:href="jsdoc_default/@twyr/framework-classes/0.2.0/scripts/linenumber.js" xlink:title="no&#45;orphans">
<path fill="#ccffcc" stroke="orange" d="M117.58,-319.25C117.58,-319.25 54.42,-319.25 54.42,-319.25 51.21,-319.25 48,-316.04 48,-312.83 48,-312.83 48,-306.42 48,-306.42 48,-303.21 51.21,-300 54.42,-300 54.42,-300 117.58,-300 117.58,-300 120.79,-300 124,-303.21 124,-306.42 124,-306.42 124,-312.83 124,-312.83 124,-316.04 120.79,-319.25 117.58,-319.25"/>
<text xml:space="preserve" text-anchor="start" x="56" y="-306.25" font-family="Helvetica,sans-Serif" font-size="9.00" fill="orange">linenumber.js</text>
</a>
</g>
</g>
<!-- jsdoc_default/@twyr/framework&#45;classes/0.2.0/scripts/search.js -->
<g id="node26" class="node">
<title>jsdoc_default/@twyr/framework&#45;classes/0.2.0/scripts/search.js</title>
<g id="a_node26"><a xlink:href="jsdoc_default/@twyr/framework-classes/0.2.0/scripts/search.js" xlink:title="no&#45;orphans">
<path fill="#ccffcc" stroke="orange" d="M107.08,-350.25C107.08,-350.25 64.92,-350.25 64.92,-350.25 61.71,-350.25 58.5,-347.04 58.5,-343.83 58.5,-343.83 58.5,-337.42 58.5,-337.42 58.5,-334.21 61.71,-331 64.92,-331 64.92,-331 107.08,-331 107.08,-331 110.29,-331 113.5,-334.21 113.5,-337.42 113.5,-337.42 113.5,-343.83 113.5,-343.83 113.5,-347.04 110.29,-350.25 107.08,-350.25"/>
<text xml:space="preserve" text-anchor="start" x="66.5" y="-337.25" font-family="Helvetica,sans-Serif" font-size="9.00" fill="orange">search.js</text>
</a>
</g>
</g>
<!-- namespace.js -->
<g id="node28" class="node">
<title>namespace.js</title>
<g id="a_node28"><a xlink:href="namespace.js" xlink:title="no&#45;orphans">
<path fill="#ccffcc" stroke="orange" d="M118.33,-513.25C118.33,-513.25 53.67,-513.25 53.67,-513.25 50.46,-513.25 47.25,-510.04 47.25,-506.83 47.25,-506.83 47.25,-500.42 47.25,-500.42 47.25,-497.21 50.46,-494 53.67,-494 53.67,-494 118.33,-494 118.33,-494 121.54,-494 124.75,-497.21 124.75,-500.42 124.75,-500.42 124.75,-506.83 124.75,-506.83 124.75,-510.04 121.54,-513.25 118.33,-513.25"/>
<text xml:space="preserve" text-anchor="start" x="55.25" y="-500.25" font-family="Helvetica,sans-Serif" font-size="9.00" fill="orange">namespace.js</text>
</a>
</g>
</g>
<!-- node_modules/chai -->
<g id="node29" class="node">
<title>node_modules/chai</title>
<g id="a_node29"><a xlink:href="https://www.npmjs.com/package/chai" xlink:title="chai">
<polygon fill="#c40b0a" fill-opacity="0.101961" stroke="black" points="578.5,-214.25 526.64,-214.25 524.5,-212.11 524.5,-195 576.36,-195 578.5,-197.14 578.5,-214.25"/>
<polyline fill="none" stroke="black" points="576.36,-212.11 524.5,-212.11"/>
<polyline fill="none" stroke="black" points="576.36,-212.11 576.36,-195"/>
<polyline fill="none" stroke="black" points="576.36,-212.11 578.5,-214.25"/>
<text xml:space="preserve" text-anchor="start" x="542.12" y="-201.25" font-family="Helvetica,sans-Serif" font-size="9.00" fill="#c40b0a">chai</text>
</a>
</g>
</g>
<!-- tests/index.spec.cjs -->
<g id="node30" class="node">
<title>tests/index.spec.cjs</title>
<g id="a_node30"><a xlink:href="tests/index.spec.cjs" xlink:title="index.spec.cjs">
<path fill="#ffffcc" stroke="black" d="M461.33,-218.25C461.33,-218.25 394.42,-218.25 394.42,-218.25 391.21,-218.25 388,-215.04 388,-211.83 388,-211.83 388,-205.42 388,-205.42 388,-202.21 391.21,-199 394.42,-199 394.42,-199 461.33,-199 461.33,-199 464.54,-199 467.75,-202.21 467.75,-205.42 467.75,-205.42 467.75,-211.83 467.75,-211.83 467.75,-215.04 464.54,-218.25 461.33,-218.25"/>
<text xml:space="preserve" text-anchor="start" x="396" y="-205.25" font-family="Helvetica,sans-Serif" font-size="9.00">index.spec.cjs</text>
</a>
</g>
</g>
<!-- tests/index.spec.cjs&#45;&gt;node_modules/chai -->
<g id="edge27" class="edge">
<title>tests/index.spec.cjs&#45;&gt;node_modules/chai</title>
<path fill="none" stroke="#000000" stroke-dasharray="5,2" stroke-opacity="0.200000" d="M468.03,-207.34C483.78,-206.82 501.77,-206.23 516.91,-205.73"/>
<polygon fill="#000000" fill-opacity="0.200000" stroke="#000000" stroke-opacity="0.200000" points="516.66,-207.84 522.59,-205.54 516.52,-203.64 516.66,-207.84"/>
</g>
<!-- tests/setup&#45;mocks.cjs -->
<g id="node31" class="node">
<title>tests/setup&#45;mocks.cjs</title>
<g id="a_node31"><a xlink:href="tests/setup-mocks.cjs" xlink:title="no&#45;orphans">
<path fill="#ccffcc" stroke="orange" d="M465.83,-249.25C465.83,-249.25 389.92,-249.25 389.92,-249.25 386.71,-249.25 383.5,-246.04 383.5,-242.83 383.5,-242.83 383.5,-236.42 383.5,-236.42 383.5,-233.21 386.71,-230 389.92,-230 389.92,-230 465.83,-230 465.83,-230 469.04,-230 472.25,-233.21 472.25,-236.42 472.25,-236.42 472.25,-242.83 472.25,-242.83 472.25,-246.04 469.04,-249.25 465.83,-249.25"/>
<text xml:space="preserve" text-anchor="start" x="391.5" y="-236.25" font-family="Helvetica,sans-Serif" font-size="9.00" fill="orange">setup&#45;mocks.cjs</text>
</a>
</g>
</g>
</g>
</svg>
