<?xml version="1.0" encoding="UTF-8" standalone="no"?>
<!DOCTYPE svg PUBLIC "-//W3C//DTD SVG 1.1//EN"
 "http://www.w3.org/Graphics/SVG/1.1/DTD/svg11.dtd">
<!-- Generated by graphviz version 14.1.4 (0)
 -->
<!-- Title: dependency&#45;cruiser output Pages: 1 -->
<svg width="427pt" height="543pt"
 viewBox="0.00 0.00 427.00 543.00" xmlns="http://www.w3.org/2000/svg" xmlns:xlink="http://www.w3.org/1999/xlink">
<g id="graph0" class="graph" transform="scale(1 1) rotate(0) translate(4 539)">
<title>dependency&#45;cruiser output</title>
<polygon fill="white" stroke="none" points="-4,4 -4,-539 423.25,-539 423.25,4 -4,4"/>
<g id="clust1" class="cluster">
<title>cluster_jsdoc_default</title>
<path fill="#ffffff" stroke="black" stroke-width="2" d="M20,-204C20,-204 152,-204 152,-204 158,-204 164,-210 164,-216 164,-216 164,-449 164,-449 164,-455 158,-461 152,-461 152,-461 20,-461 20,-461 14,-461 8,-455 8,-449 8,-449 8,-216 8,-216 8,-210 14,-204 20,-204"/>
<text xml:space="preserve" text-anchor="middle" x="86" y="-448.45" font-family="Helvetica,sans-Serif" font-weight="bold" font-size="9.00">jsdoc_default</text>
</g>
<g id="clust2" class="cluster">
<title>cluster_jsdoc_default/@twyr</title>
<path fill="#ffffff" stroke="black" stroke-width="2" d="M28,-212C28,-212 144,-212 144,-212 150,-212 156,-218 156,-224 156,-224 156,-422 156,-422 156,-428 150,-434 144,-434 144,-434 28,-434 28,-434 22,-434 16,-428 16,-422 16,-422 16,-224 16,-224 16,-218 22,-212 28,-212"/>
<text xml:space="preserve" text-anchor="middle" x="86" y="-421.45" font-family="Helvetica,sans-Serif" font-weight="bold" font-size="9.00">@twyr</text>
</g>
<g id="clust3" class="cluster">
<title>cluster_jsdoc_default/@twyr/error&#45;serializer</title>
<path fill="#ffffff" stroke="black" stroke-width="2" d="M36,-220C36,-220 136,-220 136,-220 142,-220 148,-226 148,-232 148,-232 148,-395 148,-395 148,-401 142,-407 136,-407 136,-407 36,-407 36,-407 30,-407 24,-401 24,-395 24,-395 24,-232 24,-232 24,-226 30,-220 36,-220"/>
<text xml:space="preserve" text-anchor="middle" x="86" y="-394.45" font-family="Helvetica,sans-Serif" font-weight="bold" font-size="9.00">error&#45;serializer</text>
</g>
<g id="clust4" class="cluster">
<title>cluster_jsdoc_default/@twyr/error&#45;serializer/0.2.0</title>
<path fill="#ffffff" stroke="black" stroke-width="2" d="M44,-228C44,-228 128,-228 128,-228 134,-228 140,-234 140,-240 140,-240 140,-368 140,-368 140,-374 134,-380 128,-380 128,-380 44,-380 44,-380 38,-380 32,-374 32,-368 32,-368 32,-240 32,-240 32,-234 38,-228 44,-228"/>
<text xml:space="preserve" text-anchor="middle" x="86" y="-367.45" font-family="Helvetica,sans-Serif" font-weight="bold" font-size="9.00">0.2.0</text>
</g>
<g id="clust5" class="cluster">
<title>cluster_jsdoc_default/@twyr/error&#45;serializer/0.2.0/scripts</title>
<path fill="#ffffff" stroke="black" stroke-width="2" d="M52,-236C52,-236 120,-236 120,-236 126,-236 132,-242 132,-248 132,-248 132,-341 132,-341 132,-347 126,-353 120,-353 120,-353 52,-353 52,-353 46,-353 40,-347 40,-341 40,-341 40,-248 40,-248 40,-242 46,-236 52,-236"/>
<text xml:space="preserve" text-anchor="middle" x="86" y="-340.45" font-family="Helvetica,sans-Serif" font-weight="bold" font-size="9.00">scripts</text>
</g>
<g id="clust6" class="cluster">
<title>cluster_lib</title>
<path fill="#ffffff" stroke="black" stroke-width="2" d="M184.38,-102C184.38,-102 264.38,-102 264.38,-102 270.38,-102 276.38,-108 276.38,-114 276.38,-114 276.38,-145 276.38,-145 276.38,-151 270.38,-157 264.38,-157 264.38,-157 184.38,-157 184.38,-157 178.38,-157 172.38,-151 172.38,-145 172.38,-145 172.38,-114 172.38,-114 172.38,-108 178.38,-102 184.38,-102"/>
<text xml:space="preserve" text-anchor="middle" x="224.38" y="-144.45" font-family="Helvetica,sans-Serif" font-weight="bold" font-size="9.00">lib</text>
</g>
<g id="clust7" class="cluster">
<title>cluster_node_modules</title>
<path fill="#ffffff" stroke="black" stroke-width="2" d="M296.75,-71C296.75,-71 399.25,-71 399.25,-71 405.25,-71 411.25,-77 411.25,-83 411.25,-83 411.25,-515 411.25,-515 411.25,-521 405.25,-527 399.25,-527 399.25,-527 296.75,-527 296.75,-527 290.75,-527 284.75,-521 284.75,-515 284.75,-515 284.75,-83 284.75,-83 284.75,-77 290.75,-71 296.75,-71"/>
<text xml:space="preserve" text-anchor="middle" x="348" y="-514.45" font-family="Helvetica,sans-Serif" font-weight="bold" font-size="9.00">node_modules</text>
</g>
<g id="clust8" class="cluster">
<title>cluster_node_modules/@eslint</title>
<path fill="#ffffff" stroke="black" stroke-width="2" d="M325,-386C325,-386 371,-386 371,-386 377,-386 383,-392 383,-398 383,-398 383,-429 383,-429 383,-435 377,-441 371,-441 371,-441 325,-441 325,-441 319,-441 313,-435 313,-429 313,-429 313,-398 313,-398 313,-392 319,-386 325,-386"/>
<text xml:space="preserve" text-anchor="middle" x="348" y="-428.45" font-family="Helvetica,sans-Serif" font-weight="bold" font-size="9.00">@eslint</text>
</g>
<g id="clust9" class="cluster">
<title>cluster_tests</title>
<path fill="#ffffff" stroke="black" stroke-width="2" d="M184,-8C184,-8 264.75,-8 264.75,-8 270.75,-8 276.75,-14 276.75,-20 276.75,-20 276.75,-82 276.75,-82 276.75,-88 270.75,-94 264.75,-94 264.75,-94 184,-94 184,-94 178,-94 172,-88 172,-82 172,-82 172,-20 172,-20 172,-14 178,-8 184,-8"/>
<text xml:space="preserve" text-anchor="middle" x="224.38" y="-81.45" font-family="Helvetica,sans-Serif" font-weight="bold" font-size="9.00">tests</text>
</g>
<!-- .dependency&#45;cruiser.cjs -->
<g id="node1" class="node">
<title>.dependency&#45;cruiser.cjs</title>
<g id="a_node1"><a xlink:href=".dependency-cruiser.cjs" xlink:title=".dependency&#45;cruiser.cjs">
<path fill="#ccffcc" stroke="black" d="M140.83,-98.62C140.83,-98.62 31.17,-98.62 31.17,-98.62 27.96,-98.62 24.75,-95.42 24.75,-92.21 24.75,-92.21 24.75,-85.79 24.75,-85.79 24.75,-82.58 27.96,-79.38 31.17,-79.38 31.17,-79.38 140.83,-79.38 140.83,-79.38 144.04,-79.38 147.25,-82.58 147.25,-85.79 147.25,-85.79 147.25,-92.21 147.25,-92.21 147.25,-95.42 144.04,-98.62 140.83,-98.62"/>
<text xml:space="preserve" text-anchor="start" x="32.75" y="-85.62" font-family="Helvetica,sans-Serif" font-size="9.00">.dependency&#45;cruiser.cjs</text>
</a>
</g>
</g>
<!-- eslint.config.js -->
<g id="node2" class="node">
<title>eslint.config.js</title>
<g id="a_node2"><a xlink:href="eslint.config.js" xlink:title="eslint.config.js">
<path fill="#ffffcc" stroke="black" d="M258.21,-330.62C258.21,-330.62 190.54,-330.62 190.54,-330.62 187.33,-330.62 184.12,-327.42 184.12,-324.21 184.12,-324.21 184.12,-317.79 184.12,-317.79 184.12,-314.58 187.33,-311.38 190.54,-311.38 190.54,-311.38 258.21,-311.38 258.21,-311.38 261.42,-311.38 264.62,-314.58 264.62,-317.79 264.62,-317.79 264.62,-324.21 264.62,-324.21 264.62,-327.42 261.42,-330.62 258.21,-330.62"/>
<text xml:space="preserve" text-anchor="start" x="192.12" y="-317.62" font-family="Helvetica,sans-Serif" font-size="9.00">eslint.config.js</text>
</a>
</g>
</g>
<!-- node_modules/@eslint/js -->
<g id="node3" class="node">
<title>node_modules/@eslint/js</title>
<g id="a_node3"><a xlink:href="https://www.npmjs.com/package/@eslint/js" xlink:title="js">
<polygon fill="#c40b0a" fill-opacity="0.101961" stroke="black" points="375,-413.62 323.14,-413.62 321,-411.49 321,-394.38 372.86,-394.38 375,-396.51 375,-413.62"/>
<polyline fill="none" stroke="black" points="372.86,-411.49 321,-411.49"/>
<polyline fill="none" stroke="black" points="372.86,-411.49 372.86,-394.38"/>
<polyline fill="none" stroke="black" points="372.86,-411.49 375,-413.62"/>
<text xml:space="preserve" text-anchor="start" x="344.62" y="-400.62" font-family="Helvetica,sans-Serif" font-size="9.00" fill="#c40b0a">js</text>
</a>
</g>
</g>
<!-- eslint.config.js&#45;&gt;node_modules/@eslint/js -->
<g id="edge1" class="edge">
<title>eslint.config.js&#45;&gt;node_modules/@eslint/js</title>
<path fill="none" stroke="#000000" stroke-opacity="0.200000" d="M231.06,-331C240.27,-346.25 259.96,-375.11 284.75,-390 293.38,-395.18 303.72,-398.45 313.48,-400.51"/>
<polygon fill="#000000" fill-opacity="0.200000" stroke="#000000" stroke-opacity="0.200000" points="313.01,-402.56 319.29,-401.58 313.78,-398.43 313.01,-402.56"/>
</g>
<!-- node_modules/eslint&#45;plugin&#45;jsdoc -->
<g id="node4" class="node">
<title>node_modules/eslint&#45;plugin&#45;jsdoc</title>
<g id="a_node4"><a xlink:href="https://www.npmjs.com/package/eslint-plugin-jsdoc" xlink:title="eslint&#45;plugin&#45;jsdoc">
<polygon fill="#c40b0a" fill-opacity="0.101961" stroke="black" points="396.88,-468.62 301.26,-468.62 299.12,-466.49 299.12,-449.38 394.74,-449.38 396.88,-451.51 396.88,-468.62"/>
<polyline fill="none" stroke="black" points="394.74,-466.49 299.12,-466.49"/>
<polyline fill="none" stroke="black" points="394.74,-466.49 394.74,-449.38"/>
<polyline fill="none" stroke="black" points="394.74,-466.49 396.88,-468.62"/>
<text xml:space="preserve" text-anchor="start" x="307.12" y="-455.62" font-family="Helvetica,sans-Serif" font-size="9.00" fill="#c40b0a">eslint&#45;plugin&#45;jsdoc</text>
</a>
</g>
</g>
<!-- eslint.config.js&#45;&gt;node_modules/eslint&#45;plugin&#45;jsdoc -->
<g id="edge2" class="edge">
<title>eslint.config.js&#45;&gt;node_modules/eslint&#45;plugin&#45;jsdoc</title>
<path fill="none" stroke="#000000" stroke-opacity="0.200000" d="M227.21,-331.1C232.05,-354.73 247.47,-413.93 284.75,-444 287.09,-445.88 289.62,-447.54 292.29,-448.99"/>
<polygon fill="#000000" fill-opacity="0.200000" stroke="#000000" stroke-opacity="0.200000" points="291.03,-450.72 297.35,-451.37 292.82,-446.92 291.03,-450.72"/>
</g>
<!-- node_modules/eslint&#45;plugin&#45;jsonc -->
<g id="node5" class="node">
<title>node_modules/eslint&#45;plugin&#45;jsonc</title>
<g id="a_node5"><a xlink:href="https://www.npmjs.com/package/eslint-plugin-jsonc" xlink:title="eslint&#45;plugin&#45;jsonc">
<polygon fill="#c40b0a" fill-opacity="0.101961" stroke="black" points="396.88,-499.62 301.26,-499.62 299.12,-497.49 299.12,-480.38 394.74,-480.38 396.88,-482.51 396.88,-499.62"/>
<polyline fill="none" stroke="black" points="394.74,-497.49 299.12,-497.49"/>
<polyline fill="none" stroke="black" points="394.74,-497.49 394.74,-480.38"/>
<polyline fill="none" stroke="black" points="394.74,-497.49 396.88,-499.62"/>
<text xml:space="preserve" text-anchor="start" x="307.12" y="-486.62" font-family="Helvetica,sans-Serif" font-size="9.00" fill="#c40b0a">eslint&#45;plugin&#45;jsonc</text>
</a>
</g>
</g>
<!-- eslint.config.js&#45;&gt;node_modules/eslint&#45;plugin&#45;jsonc -->
<g id="edge3" class="edge">
<title>eslint.config.js&#45;&gt;node_modules/eslint&#45;plugin&#45;jsonc</title>
<path fill="none" stroke="#000000" stroke-opacity="0.200000" d="M226.13,-331.07C228.74,-358.6 239.93,-435.72 284.75,-475 287.05,-477.02 289.58,-478.78 292.26,-480.31"/>
<polygon fill="#000000" fill-opacity="0.200000" stroke="#000000" stroke-opacity="0.200000" points="291.08,-482.07 297.39,-482.82 292.93,-478.29 291.08,-482.07"/>
</g>
<!-- node_modules/eslint&#45;plugin&#45;mocha -->
<g id="node6" class="node">
<title>node_modules/eslint&#45;plugin&#45;mocha</title>
<g id="a_node6"><a xlink:href="https://www.npmjs.com/package/eslint-plugin-mocha" xlink:title="eslint&#45;plugin&#45;mocha">
<polygon fill="#c40b0a" fill-opacity="0.101961" stroke="black" points="400.62,-191.62 297.51,-191.62 295.38,-189.49 295.38,-172.38 398.49,-172.38 400.62,-174.51 400.62,-191.62"/>
<polyline fill="none" stroke="black" points="398.49,-189.49 295.38,-189.49"/>
<polyline fill="none" stroke="black" points="398.49,-189.49 398.49,-172.38"/>
<polyline fill="none" stroke="black" points="398.49,-189.49 400.62,-191.62"/>
<text xml:space="preserve" text-anchor="start" x="303.38" y="-178.62" font-family="Helvetica,sans-Serif" font-size="9.00" fill="#c40b0a">eslint&#45;plugin&#45;mocha</text>
</a>
</g>
</g>
<!-- eslint.config.js&#45;&gt;node_modules/eslint&#45;plugin&#45;mocha -->
<g id="edge4" class="edge">
<title>eslint.config.js&#45;&gt;node_modules/eslint&#45;plugin&#45;mocha</title>
<path fill="none" stroke="#000000" stroke-opacity="0.200000" d="M227.11,-311.18C231.82,-287.59 247.08,-227.48 284.75,-197 286.01,-195.98 287.34,-195.02 288.71,-194.13"/>
<polygon fill="#000000" fill-opacity="0.200000" stroke="#000000" stroke-opacity="0.200000" points="289.46,-196.12 293.67,-191.35 287.41,-192.45 289.46,-196.12"/>
</g>
<!-- node_modules/eslint&#45;plugin&#45;n -->
<g id="node7" class="node">
<title>node_modules/eslint&#45;plugin&#45;n</title>
<g id="a_node7"><a xlink:href="https://www.npmjs.com/package/eslint-plugin-n" xlink:title="eslint&#45;plugin&#45;n">
<polygon fill="#c40b0a" fill-opacity="0.101961" stroke="black" points="388.25,-222.62 309.89,-222.62 307.75,-220.49 307.75,-203.38 386.11,-203.38 388.25,-205.51 388.25,-222.62"/>
<polyline fill="none" stroke="black" points="386.11,-220.49 307.75,-220.49"/>
<polyline fill="none" stroke="black" points="386.11,-220.49 386.11,-203.38"/>
<polyline fill="none" stroke="black" points="386.11,-220.49 388.25,-222.62"/>
<text xml:space="preserve" text-anchor="start" x="315.75" y="-209.62" font-family="Helvetica,sans-Serif" font-size="9.00" fill="#c40b0a">eslint&#45;plugin&#45;n</text>
</a>
</g>
</g>
<!-- eslint.config.js&#45;&gt;node_modules/eslint&#45;plugin&#45;n -->
<g id="edge5" class="edge">
<title>eslint.config.js&#45;&gt;node_modules/eslint&#45;plugin&#45;n</title>
<path fill="none" stroke="#000000" stroke-opacity="0.200000" d="M228.81,-311.07C236,-291.86 254.49,-249.58 284.75,-228 289.46,-224.64 294.83,-222.03 300.39,-220"/>
<polygon fill="#000000" fill-opacity="0.200000" stroke="#000000" stroke-opacity="0.200000" points="300.99,-222.01 306.06,-218.18 299.71,-218.01 300.99,-222.01"/>
</g>
<!-- node_modules/eslint&#45;plugin&#45;prettier -->
<g id="node8" class="node">
<title>node_modules/eslint&#45;plugin&#45;prettier</title>
<g id="a_node8"><a xlink:href="https://www.npmjs.com/package/eslint-plugin-prettier" xlink:title="eslint&#45;plugin&#45;prettier">
<polygon fill="#c40b0a" fill-opacity="0.101961" stroke="black" points="402.12,-253.62 296.01,-253.62 293.88,-251.49 293.88,-234.38 399.99,-234.38 402.12,-236.51 402.12,-253.62"/>
<polyline fill="none" stroke="black" points="399.99,-251.49 293.88,-251.49"/>
<polyline fill="none" stroke="black" points="399.99,-251.49 399.99,-234.38"/>
<polyline fill="none" stroke="black" points="399.99,-251.49 402.12,-253.62"/>
<text xml:space="preserve" text-anchor="start" x="301.88" y="-240.62" font-family="Helvetica,sans-Serif" font-size="9.00" fill="#c40b0a">eslint&#45;plugin&#45;prettier</text>
</a>
</g>
</g>
<!-- eslint.config.js&#45;&gt;node_modules/eslint&#45;plugin&#45;prettier -->
<g id="edge6" class="edge">
<title>eslint.config.js&#45;&gt;node_modules/eslint&#45;plugin&#45;prettier</title>
<path fill="none" stroke="#000000" stroke-opacity="0.200000" d="M232.15,-310.92C242.03,-297.03 261.75,-272.22 284.75,-259 285.98,-258.29 287.24,-257.62 288.53,-256.98"/>
<polygon fill="#000000" fill-opacity="0.200000" stroke="#000000" stroke-opacity="0.200000" points="289.14,-259.01 293.76,-254.64 287.43,-255.17 289.14,-259.01"/>
</g>
<!-- node_modules/eslint&#45;plugin&#45;security -->
<g id="node9" class="node">
<title>node_modules/eslint&#45;plugin&#45;security</title>
<g id="a_node9"><a xlink:href="https://www.npmjs.com/package/eslint-plugin-security" xlink:title="eslint&#45;plugin&#45;security">
<polygon fill="#c40b0a" fill-opacity="0.101961" stroke="black" points="403.25,-284.62 294.89,-284.62 292.75,-282.49 292.75,-265.38 401.11,-265.38 403.25,-267.51 403.25,-284.62"/>
<polyline fill="none" stroke="black" points="401.11,-282.49 292.75,-282.49"/>
<polyline fill="none" stroke="black" points="401.11,-282.49 401.11,-265.38"/>
<polyline fill="none" stroke="black" points="401.11,-282.49 403.25,-284.62"/>
<text xml:space="preserve" text-anchor="start" x="300.75" y="-271.62" font-family="Helvetica,sans-Serif" font-size="9.00" fill="#c40b0a">eslint&#45;plugin&#45;security</text>
</a>
</g>
</g>
<!-- eslint.config.js&#45;&gt;node_modules/eslint&#45;plugin&#45;security -->
<g id="edge7" class="edge">
<title>eslint.config.js&#45;&gt;node_modules/eslint&#45;plugin&#45;security</title>
<path fill="none" stroke="#000000" stroke-opacity="0.200000" d="M242.01,-310.9C253.64,-304.2 269.72,-295.64 284.75,-290 287.29,-289.05 289.92,-288.14 292.59,-287.27"/>
<polygon fill="#000000" fill-opacity="0.200000" stroke="#000000" stroke-opacity="0.200000" points="293.15,-289.3 298.28,-285.54 291.92,-285.28 293.15,-289.3"/>
</g>
<!-- node_modules/eslint&#45;plugin&#45;unicorn -->
<g id="node10" class="node">
<title>node_modules/eslint&#45;plugin&#45;unicorn</title>
<g id="a_node10"><a xlink:href="https://www.npmjs.com/package/eslint-plugin-unicorn" xlink:title="eslint&#45;plugin&#45;unicorn">
<polygon fill="#c40b0a" fill-opacity="0.101961" stroke="black" points="402.5,-315.62 295.64,-315.62 293.5,-313.49 293.5,-296.38 400.36,-296.38 402.5,-298.51 402.5,-315.62"/>
<polyline fill="none" stroke="black" points="400.36,-313.49 293.5,-313.49"/>
<polyline fill="none" stroke="black" points="400.36,-313.49 400.36,-296.38"/>
<polyline fill="none" stroke="black" points="400.36,-313.49 402.5,-315.62"/>
<text xml:space="preserve" text-anchor="start" x="301.5" y="-302.62" font-family="Helvetica,sans-Serif" font-size="9.00" fill="#c40b0a">eslint&#45;plugin&#45;unicorn</text>
</a>
</g>
</g>
<!-- eslint.config.js&#45;&gt;node_modules/eslint&#45;plugin&#45;unicorn -->
<g id="edge8" class="edge">
<title>eslint.config.js&#45;&gt;node_modules/eslint&#45;plugin&#45;unicorn</title>
<path fill="none" stroke="#000000" stroke-opacity="0.200000" d="M264.86,-316.13C271.63,-315.3 278.79,-314.41 285.96,-313.53"/>
<polygon fill="#000000" fill-opacity="0.200000" stroke="#000000" stroke-opacity="0.200000" points="285.92,-315.65 291.62,-312.83 285.4,-311.48 285.92,-315.65"/>
</g>
<!-- node_modules/eslint -->
<g id="node11" class="node">
<title>node_modules/eslint</title>
<g id="a_node11"><a xlink:href="https://www.npmjs.com/package/eslint" xlink:title="eslint">
<polygon fill="#c40b0a" fill-opacity="0.101961" stroke="black" points="375,-346.62 323.14,-346.62 321,-344.49 321,-327.38 372.86,-327.38 375,-329.51 375,-346.62"/>
<polyline fill="none" stroke="black" points="372.86,-344.49 321,-344.49"/>
<polyline fill="none" stroke="black" points="372.86,-344.49 372.86,-327.38"/>
<polyline fill="none" stroke="black" points="372.86,-344.49 375,-346.62"/>
<text xml:space="preserve" text-anchor="start" x="336" y="-333.62" font-family="Helvetica,sans-Serif" font-size="9.00" fill="#c40b0a">eslint</text>
</a>
</g>
</g>
<!-- eslint.config.js&#45;&gt;node_modules/eslint -->
<g id="edge9" class="edge">
<title>eslint.config.js&#45;&gt;node_modules/eslint</title>
<path fill="none" stroke="#000000" stroke-opacity="0.200000" d="M264.86,-326.19C280.6,-328.26 298.52,-330.62 313.59,-332.61"/>
<polygon fill="#000000" fill-opacity="0.200000" stroke="#000000" stroke-opacity="0.200000" points="313.02,-334.65 319.24,-333.35 313.57,-330.48 313.02,-334.65"/>
</g>
<!-- node_modules/globals -->
<g id="node12" class="node">
<title>node_modules/globals</title>
<g id="a_node12"><a xlink:href="https://www.npmjs.com/package/globals" xlink:title="globals">
<polygon fill="#c40b0a" fill-opacity="0.101961" stroke="black" points="375,-377.62 323.14,-377.62 321,-375.49 321,-358.38 372.86,-358.38 375,-360.51 375,-377.62"/>
<polyline fill="none" stroke="black" points="372.86,-375.49 321,-375.49"/>
<polyline fill="none" stroke="black" points="372.86,-375.49 372.86,-358.38"/>
<polyline fill="none" stroke="black" points="372.86,-375.49 375,-377.62"/>
<text xml:space="preserve" text-anchor="start" x="332.25" y="-364.62" font-family="Helvetica,sans-Serif" font-size="9.00" fill="#c40b0a">globals</text>
</a>
</g>
</g>
<!-- eslint.config.js&#45;&gt;node_modules/globals -->
<g id="edge10" class="edge">
<title>eslint.config.js&#45;&gt;node_modules/globals</title>
<g id="a_edge10"><a xlink:title="no&#45;non&#45;package&#45;json">
<path fill="none" stroke="red" d="M240.97,-330.85C252.65,-337.86 269.22,-347.06 284.75,-353 293.93,-356.51 304.2,-359.39 313.71,-361.65"/>
<polygon fill="red" stroke="red" points="313.01,-363.64 319.33,-362.92 313.94,-359.55 313.01,-363.64"/>
</a>
</g>
<text xml:space="preserve" text-anchor="middle" x="237.9" y="-344.46" font-family="Helvetica,sans-Serif" font-size="9.00" fill="red">no&#45;non&#45;package&#45;json</text>
</g>
<!-- gruntfile.cjs -->
<g id="node13" class="node">
<title>gruntfile.cjs</title>
<g id="a_node13"><a xlink:href="gruntfile.cjs" xlink:title="gruntfile.cjs">
<path fill="#ffffcc" stroke="black" d="M252.58,-184.62C252.58,-184.62 196.17,-184.62 196.17,-184.62 192.96,-184.62 189.75,-181.42 189.75,-178.21 189.75,-178.21 189.75,-171.79 189.75,-171.79 189.75,-168.58 192.96,-165.38 196.17,-165.38 196.17,-165.38 252.58,-165.38 252.58,-165.38 255.79,-165.38 259,-168.58 259,-171.79 259,-171.79 259,-178.21 259,-178.21 259,-181.42 255.79,-184.62 252.58,-184.62"/>
<text xml:space="preserve" text-anchor="start" x="197.75" y="-171.62" font-family="Helvetica,sans-Serif" font-size="9.00">gruntfile.cjs</text>
</a>
</g>
</g>
<!-- node_modules/load&#45;grunt&#45;tasks -->
<g id="node14" class="node">
<title>node_modules/load&#45;grunt&#45;tasks</title>
<g id="a_node14"><a xlink:href="https://www.npmjs.com/package/load-grunt-tasks" xlink:title="load&#45;grunt&#45;tasks">
<polygon fill="#c40b0a" fill-opacity="0.101961" stroke="black" points="392.75,-160.62 305.39,-160.62 303.25,-158.49 303.25,-141.38 390.61,-141.38 392.75,-143.51 392.75,-160.62"/>
<polyline fill="none" stroke="black" points="390.61,-158.49 303.25,-158.49"/>
<polyline fill="none" stroke="black" points="390.61,-158.49 390.61,-141.38"/>
<polyline fill="none" stroke="black" points="390.61,-158.49 392.75,-160.62"/>
<text xml:space="preserve" text-anchor="start" x="311.25" y="-147.62" font-family="Helvetica,sans-Serif" font-size="9.00" fill="#c40b0a">load&#45;grunt&#45;tasks</text>
</a>
</g>
</g>
<!-- gruntfile.cjs&#45;&gt;node_modules/load&#45;grunt&#45;tasks -->
<g id="edge11" class="edge">
<title>gruntfile.cjs&#45;&gt;node_modules/load&#45;grunt&#45;tasks</title>
<path fill="none" stroke="#000000" stroke-opacity="0.200000" d="M259.25,-168.31C270.54,-166.09 283.37,-163.56 295.67,-161.13"/>
<polygon fill="#000000" fill-opacity="0.200000" stroke="#000000" stroke-opacity="0.200000" points="295.87,-163.23 301.35,-160.01 295.05,-159.11 295.87,-163.23"/>
</g>
<!-- index.js -->
<g id="node15" class="node">
<title>index.js</title>
<g id="a_node15"><a xlink:href="index.js" xlink:title="index.js">
<path fill="#ffffcc" stroke="black" d="M106.58,-129.62C106.58,-129.62 65.42,-129.62 65.42,-129.62 62.21,-129.62 59,-126.42 59,-123.21 59,-123.21 59,-116.79 59,-116.79 59,-113.58 62.21,-110.38 65.42,-110.38 65.42,-110.38 106.58,-110.38 106.58,-110.38 109.79,-110.38 113,-113.58 113,-116.79 113,-116.79 113,-123.21 113,-123.21 113,-126.42 109.79,-129.62 106.58,-129.62"/>
<text xml:space="preserve" text-anchor="start" x="68.75" y="-116.62" font-family="Helvetica,sans-Serif" font-size="9.00">index.js</text>
</a>
</g>
</g>
<!-- lib/error&#45;serializer.js -->
<g id="node16" class="node">
<title>lib/error&#45;serializer.js</title>
<g id="a_node16"><a xlink:href="lib/error-serializer.js" xlink:title="error&#45;serializer.js">
<path fill="#ffffcc" stroke="black" d="M261.96,-129.62C261.96,-129.62 186.79,-129.62 186.79,-129.62 183.58,-129.62 180.38,-126.42 180.38,-123.21 180.38,-123.21 180.38,-116.79 180.38,-116.79 180.38,-113.58 183.58,-110.38 186.79,-110.38 186.79,-110.38 261.96,-110.38 261.96,-110.38 265.17,-110.38 268.38,-113.58 268.38,-116.79 268.38,-116.79 268.38,-123.21 268.38,-123.21 268.38,-126.42 265.17,-129.62 261.96,-129.62"/>
<text xml:space="preserve" text-anchor="start" x="188.38" y="-116.62" font-family="Helvetica,sans-Serif" font-size="9.00">error&#45;serializer.js</text>
</a>
</g>
</g>
<!-- index.js&#45;&gt;lib/error&#45;serializer.js -->
<g id="edge12" class="edge">
<title>index.js&#45;&gt;lib/error&#45;serializer.js</title>
<path fill="none" stroke="#000000" stroke-width="2" stroke-opacity="0.200000" d="M113.29,-120C130.19,-120 152.68,-120 172.93,-120"/>
<polygon fill="#000000" fill-opacity="0.200000" stroke="#000000" stroke-width="2" stroke-opacity="0.200000" points="178.99,-122.1 172.99,-120 178.99,-117.9 178.99,-122.1"/>
</g>
<!-- node_modules/safe&#45;json&#45;stringify -->
<g id="node20" class="node">
<title>node_modules/safe&#45;json&#45;stringify</title>
<g id="a_node20"><a xlink:href="https://www.npmjs.com/package/safe-json-stringify" xlink:title="safe&#45;json&#45;stringify">
<polygon fill="#c40b0a" fill-opacity="0.101961" stroke="black" points="395.38,-129.62 302.76,-129.62 300.62,-127.49 300.62,-110.38 393.24,-110.38 395.38,-112.51 395.38,-129.62"/>
<polyline fill="none" stroke="black" points="393.24,-127.49 300.62,-127.49"/>
<polyline fill="none" stroke="black" points="393.24,-127.49 393.24,-110.38"/>
<polyline fill="none" stroke="black" points="393.24,-127.49 395.38,-129.62"/>
<text xml:space="preserve" text-anchor="start" x="308.62" y="-116.62" font-family="Helvetica,sans-Serif" font-size="9.00" fill="#c40b0a">safe&#45;json&#45;stringify</text>
</a>
</g>
</g>
<!-- lib/error&#45;serializer.js&#45;&gt;node_modules/safe&#45;json&#45;stringify -->
<g id="edge13" class="edge">
<title>lib/error&#45;serializer.js&#45;&gt;node_modules/safe&#45;json&#45;stringify</title>
<path fill="none" stroke="#000000" stroke-opacity="0.200000" d="M268.6,-120C276.44,-120 284.71,-120 292.82,-120"/>
<polygon fill="#000000" fill-opacity="0.200000" stroke="#000000" stroke-opacity="0.200000" points="292.69,-122.1 298.69,-120 292.69,-117.9 292.69,-122.1"/>
</g>
<!-- jsdoc_default/@twyr/error&#45;serializer/0.2.0/scripts/app.min.js -->
<g id="node17" class="node">
<title>jsdoc_default/@twyr/error&#45;serializer/0.2.0/scripts/app.min.js</title>
<g id="a_node17"><a xlink:href="jsdoc_default/@twyr/error-serializer/0.2.0/scripts/app.min.js" xlink:title="no&#45;orphans">
<path fill="#ccffcc" stroke="orange" d="M111.21,-263.62C111.21,-263.62 60.79,-263.62 60.79,-263.62 57.58,-263.62 54.38,-260.42 54.38,-257.21 54.38,-257.21 54.38,-250.79 54.38,-250.79 54.38,-247.58 57.58,-244.38 60.79,-244.38 60.79,-244.38 111.21,-244.38 111.21,-244.38 114.42,-244.38 117.62,-247.58 117.62,-250.79 117.62,-250.79 117.62,-257.21 117.62,-257.21 117.62,-260.42 114.42,-263.62 111.21,-263.62"/>
<text xml:space="preserve" text-anchor="start" x="62.38" y="-250.62" font-family="Helvetica,sans-Serif" font-size="9.00" fill="orange">app.min.js</text>
</a>
</g>
</g>
<!-- jsdoc_default/@twyr/error&#45;serializer/0.2.0/scripts/linenumber.js -->
<g id="node18" class="node">
<title>jsdoc_default/@twyr/error&#45;serializer/0.2.0/scripts/linenumber.js</title>
<g id="a_node18"><a xlink:href="jsdoc_default/@twyr/error-serializer/0.2.0/scripts/linenumber.js" xlink:title="no&#45;orphans">
<path fill="#ccffcc" stroke="orange" d="M117.58,-294.62C117.58,-294.62 54.42,-294.62 54.42,-294.62 51.21,-294.62 48,-291.42 48,-288.21 48,-288.21 48,-281.79 48,-281.79 48,-278.58 51.21,-275.38 54.42,-275.38 54.42,-275.38 117.58,-275.38 117.58,-275.38 120.79,-275.38 124,-278.58 124,-281.79 124,-281.79 124,-288.21 124,-288.21 124,-291.42 120.79,-294.62 117.58,-294.62"/>
<text xml:space="preserve" text-anchor="start" x="56" y="-281.62" font-family="Helvetica,sans-Serif" font-size="9.00" fill="orange">linenumber.js</text>
</a>
</g>
</g>
<!-- jsdoc_default/@twyr/error&#45;serializer/0.2.0/scripts/search.js -->
<g id="node19" class="node">
<title>jsdoc_default/@twyr/error&#45;serializer/0.2.0/scripts/search.js</title>
<g id="a_node19"><a xlink:href="jsdoc_default/@twyr/error-serializer/0.2.0/scripts/search.js" xlink:title="no&#45;orphans">
<path fill="#ccffcc" stroke="orange" d="M107.08,-325.62C107.08,-325.62 64.92,-325.62 64.92,-325.62 61.71,-325.62 58.5,-322.42 58.5,-319.21 58.5,-319.21 58.5,-312.79 58.5,-312.79 58.5,-309.58 61.71,-306.38 64.92,-306.38 64.92,-306.38 107.08,-306.38 107.08,-306.38 110.29,-306.38 113.5,-309.58 113.5,-312.79 113.5,-312.79 113.5,-319.21 113.5,-319.21 113.5,-322.42 110.29,-325.62 107.08,-325.62"/>
<text xml:space="preserve" text-anchor="start" x="66.5" y="-312.62" font-family="Helvetica,sans-Serif" font-size="9.00" fill="orange">search.js</text>
</a>
</g>
</g>
<!-- node_modules/chai -->
<g id="node21" class="node">
<title>node_modules/chai</title>
<g id="a_node21"><a xlink:href="https://www.npmjs.com/package/chai" xlink:title="chai">
<polygon fill="#c40b0a" fill-opacity="0.101961" stroke="black" points="375,-98.62 323.14,-98.62 321,-96.49 321,-79.38 372.86,-79.38 375,-81.51 375,-98.62"/>
<polyline fill="none" stroke="black" points="372.86,-96.49 321,-96.49"/>
<polyline fill="none" stroke="black" points="372.86,-96.49 372.86,-79.38"/>
<polyline fill="none" stroke="black" points="372.86,-96.49 375,-98.62"/>
<text xml:space="preserve" text-anchor="start" x="338.62" y="-85.62" font-family="Helvetica,sans-Serif" font-size="9.00" fill="#c40b0a">chai</text>
</a>
</g>
</g>
<!-- tests/index.spec.cjs -->
<g id="node22" class="node">
<title>tests/index.spec.cjs</title>
<g id="a_node22"><a xlink:href="tests/index.spec.cjs" xlink:title="index.spec.cjs">
<path fill="#ffffcc" stroke="black" d="M257.83,-35.62C257.83,-35.62 190.92,-35.62 190.92,-35.62 187.71,-35.62 184.5,-32.42 184.5,-29.21 184.5,-29.21 184.5,-22.79 184.5,-22.79 184.5,-19.58 187.71,-16.38 190.92,-16.38 190.92,-16.38 257.83,-16.38 257.83,-16.38 261.04,-16.38 264.25,-19.58 264.25,-22.79 264.25,-22.79 264.25,-29.21 264.25,-29.21 264.25,-32.42 261.04,-35.62 257.83,-35.62"/>
<text xml:space="preserve" text-anchor="start" x="192.5" y="-22.62" font-family="Helvetica,sans-Serif" font-size="9.00">index.spec.cjs</text>
</a>
</g>
</g>
<!-- tests/index.spec.cjs&#45;&gt;node_modules/chai -->
<g id="edge14" class="edge">
<title>tests/index.spec.cjs&#45;&gt;node_modules/chai</title>
<path fill="none" stroke="#000000" stroke-dasharray="5,2" stroke-opacity="0.200000" d="M264.57,-36.03C268.75,-37.52 272.89,-39.17 276.75,-41 295.97,-50.09 315.79,-64.14 329.45,-74.69"/>
<polygon fill="#000000" fill-opacity="0.200000" stroke="#000000" stroke-opacity="0.200000" points="328.07,-76.27 334.09,-78.33 330.66,-72.97 328.07,-76.27"/>
</g>
<!-- tests/setup&#45;mocks.cjs -->
<g id="node23" class="node">
<title>tests/setup&#45;mocks.cjs</title>
<g id="a_node23"><a xlink:href="tests/setup-mocks.cjs" xlink:title="no&#45;orphans">
<path fill="#ccffcc" stroke="orange" d="M262.33,-66.62C262.33,-66.62 186.42,-66.62 186.42,-66.62 183.21,-66.62 180,-63.42 180,-60.21 180,-60.21 180,-53.79 180,-53.79 180,-50.58 183.21,-47.38 186.42,-47.38 186.42,-47.38 262.33,-47.38 262.33,-47.38 265.54,-47.38 268.75,-50.58 268.75,-53.79 268.75,-53.79 268.75,-60.21 268.75,-60.21 268.75,-63.42 265.54,-66.62 262.33,-66.62"/>
<text xml:space="preserve" text-anchor="start" x="188" y="-53.62" font-family="Helvetica,sans-Serif" font-size="9.00" fill="orange">setup&#45;mocks.cjs</text>
</a>
</g>
</g>
</g>
</svg>
